%TF.GenerationSoftware,KiCad,Pcbnew,(6.0.7)*%
%TF.CreationDate,2022-09-20T18:51:32+02:00*%
%TF.ProjectId,postcardscanner,706f7374-6361-4726-9473-63616e6e6572,rev?*%
%TF.SameCoordinates,PX4d3f640PY2cd29c0*%
%TF.FileFunction,Legend,Top*%
%TF.FilePolarity,Positive*%
%FSLAX46Y46*%
G04 Gerber Fmt 4.6, Leading zero omitted, Abs format (unit mm)*
G04 Created by KiCad (PCBNEW (6.0.7)) date 2022-09-20 18:51:32*
%MOMM*%
%LPD*%
G01*
G04 APERTURE LIST*
%ADD10C,0.150000*%
%ADD11C,0.120000*%
G04 APERTURE END LIST*
D10*
X4988095Y-61654761D02*
X5130952Y-61702380D01*
X5369047Y-61702380D01*
X5464285Y-61654761D01*
X5511904Y-61607142D01*
X5559523Y-61511904D01*
X5559523Y-61416666D01*
X5511904Y-61321428D01*
X5464285Y-61273809D01*
X5369047Y-61226190D01*
X5178571Y-61178571D01*
X5083333Y-61130952D01*
X5035714Y-61083333D01*
X4988095Y-60988095D01*
X4988095Y-60892857D01*
X5035714Y-60797619D01*
X5083333Y-60750000D01*
X5178571Y-60702380D01*
X5416666Y-60702380D01*
X5559523Y-60750000D01*
X6416666Y-61035714D02*
X6416666Y-61702380D01*
X6178571Y-60654761D02*
X5940476Y-61369047D01*
X6559523Y-61369047D01*
X5369047Y-52821428D02*
X6130952Y-52821428D01*
X5369047Y-57071428D02*
X6130952Y-57071428D01*
X5750000Y-57452380D02*
X5750000Y-56690476D01*
X5369047Y-44071428D02*
X6130952Y-44071428D01*
X5750000Y-44452380D02*
X5750000Y-43690476D01*
X5369047Y-39821428D02*
X6130952Y-39821428D01*
X4988095Y-48654761D02*
X5130952Y-48702380D01*
X5369047Y-48702380D01*
X5464285Y-48654761D01*
X5511904Y-48607142D01*
X5559523Y-48511904D01*
X5559523Y-48416666D01*
X5511904Y-48321428D01*
X5464285Y-48273809D01*
X5369047Y-48226190D01*
X5178571Y-48178571D01*
X5083333Y-48130952D01*
X5035714Y-48083333D01*
X4988095Y-47988095D01*
X4988095Y-47892857D01*
X5035714Y-47797619D01*
X5083333Y-47750000D01*
X5178571Y-47702380D01*
X5416666Y-47702380D01*
X5559523Y-47750000D01*
X5892857Y-47702380D02*
X6511904Y-47702380D01*
X6178571Y-48083333D01*
X6321428Y-48083333D01*
X6416666Y-48130952D01*
X6464285Y-48178571D01*
X6511904Y-48273809D01*
X6511904Y-48511904D01*
X6464285Y-48607142D01*
X6416666Y-48654761D01*
X6321428Y-48702380D01*
X6035714Y-48702380D01*
X5940476Y-48654761D01*
X5892857Y-48607142D01*
X5369047Y-31071428D02*
X6130952Y-31071428D01*
X5750000Y-31452380D02*
X5750000Y-30690476D01*
X5369047Y-26821428D02*
X6130952Y-26821428D01*
X4988095Y-35654761D02*
X5130952Y-35702380D01*
X5369047Y-35702380D01*
X5464285Y-35654761D01*
X5511904Y-35607142D01*
X5559523Y-35511904D01*
X5559523Y-35416666D01*
X5511904Y-35321428D01*
X5464285Y-35273809D01*
X5369047Y-35226190D01*
X5178571Y-35178571D01*
X5083333Y-35130952D01*
X5035714Y-35083333D01*
X4988095Y-34988095D01*
X4988095Y-34892857D01*
X5035714Y-34797619D01*
X5083333Y-34750000D01*
X5178571Y-34702380D01*
X5416666Y-34702380D01*
X5559523Y-34750000D01*
X5940476Y-34797619D02*
X5988095Y-34750000D01*
X6083333Y-34702380D01*
X6321428Y-34702380D01*
X6416666Y-34750000D01*
X6464285Y-34797619D01*
X6511904Y-34892857D01*
X6511904Y-34988095D01*
X6464285Y-35130952D01*
X5892857Y-35702380D01*
X6511904Y-35702380D01*
X4988095Y-22654761D02*
X5130952Y-22702380D01*
X5369047Y-22702380D01*
X5464285Y-22654761D01*
X5511904Y-22607142D01*
X5559523Y-22511904D01*
X5559523Y-22416666D01*
X5511904Y-22321428D01*
X5464285Y-22273809D01*
X5369047Y-22226190D01*
X5178571Y-22178571D01*
X5083333Y-22130952D01*
X5035714Y-22083333D01*
X4988095Y-21988095D01*
X4988095Y-21892857D01*
X5035714Y-21797619D01*
X5083333Y-21750000D01*
X5178571Y-21702380D01*
X5416666Y-21702380D01*
X5559523Y-21750000D01*
X6511904Y-22702380D02*
X5940476Y-22702380D01*
X6226190Y-22702380D02*
X6226190Y-21702380D01*
X6130952Y-21845238D01*
X6035714Y-21940476D01*
X5940476Y-21988095D01*
X5369047Y-18071428D02*
X6130952Y-18071428D01*
X5750000Y-18452380D02*
X5750000Y-17690476D01*
X5369047Y-13821428D02*
X6130952Y-13821428D01*
X6738095Y-3452380D02*
X6261904Y-3452380D01*
X6261904Y-2452380D01*
X7071428Y-2928571D02*
X7404761Y-2928571D01*
X7547619Y-3452380D02*
X7071428Y-3452380D01*
X7071428Y-2452380D01*
X7547619Y-2452380D01*
X7976190Y-3452380D02*
X7976190Y-2452380D01*
X8214285Y-2452380D01*
X8357142Y-2500000D01*
X8452380Y-2595238D01*
X8500000Y-2690476D01*
X8547619Y-2880952D01*
X8547619Y-3023809D01*
X8500000Y-3214285D01*
X8452380Y-3309523D01*
X8357142Y-3404761D01*
X8214285Y-3452380D01*
X7976190Y-3452380D01*
X8976190Y-3071428D02*
X9738095Y-3071428D01*
X6738095Y-7702380D02*
X6261904Y-7702380D01*
X6261904Y-6702380D01*
X7071428Y-7178571D02*
X7404761Y-7178571D01*
X7547619Y-7702380D02*
X7071428Y-7702380D01*
X7071428Y-6702380D01*
X7547619Y-6702380D01*
X7976190Y-7702380D02*
X7976190Y-6702380D01*
X8214285Y-6702380D01*
X8357142Y-6750000D01*
X8452380Y-6845238D01*
X8500000Y-6940476D01*
X8547619Y-7130952D01*
X8547619Y-7273809D01*
X8500000Y-7464285D01*
X8452380Y-7559523D01*
X8357142Y-7654761D01*
X8214285Y-7702380D01*
X7976190Y-7702380D01*
X8976190Y-7321428D02*
X9738095Y-7321428D01*
X9357142Y-7702380D02*
X9357142Y-6940476D01*
X48571428Y-56904761D02*
X48571428Y-56142857D01*
X48952380Y-56523809D02*
X48190476Y-56523809D01*
X48952380Y-55142857D02*
X48952380Y-55714285D01*
X48952380Y-55428571D02*
X47952380Y-55428571D01*
X48095238Y-55523809D01*
X48190476Y-55619047D01*
X48238095Y-55714285D01*
X48047619Y-54761904D02*
X48000000Y-54714285D01*
X47952380Y-54619047D01*
X47952380Y-54380952D01*
X48000000Y-54285714D01*
X48047619Y-54238095D01*
X48142857Y-54190476D01*
X48238095Y-54190476D01*
X48380952Y-54238095D01*
X48952380Y-54809523D01*
X48952380Y-54190476D01*
X47952380Y-53904761D02*
X48952380Y-53571428D01*
X47952380Y-53238095D01*
X48952380Y-52142857D02*
X47952380Y-52142857D01*
X48952380Y-51666666D02*
X47952380Y-51666666D01*
X48952380Y-51095238D01*
X47952380Y-51095238D01*
X43250000Y-54011904D02*
X43202380Y-54107142D01*
X43202380Y-54250000D01*
X43250000Y-54392857D01*
X43345238Y-54488095D01*
X43440476Y-54535714D01*
X43630952Y-54583333D01*
X43773809Y-54583333D01*
X43964285Y-54535714D01*
X44059523Y-54488095D01*
X44154761Y-54392857D01*
X44202380Y-54250000D01*
X44202380Y-54154761D01*
X44154761Y-54011904D01*
X44107142Y-53964285D01*
X43773809Y-53964285D01*
X43773809Y-54154761D01*
X44202380Y-53535714D02*
X43202380Y-53535714D01*
X44202380Y-52964285D01*
X43202380Y-52964285D01*
X44202380Y-52488095D02*
X43202380Y-52488095D01*
X43202380Y-52250000D01*
X43250000Y-52107142D01*
X43345238Y-52011904D01*
X43440476Y-51964285D01*
X43630952Y-51916666D01*
X43773809Y-51916666D01*
X43964285Y-51964285D01*
X44059523Y-52011904D01*
X44154761Y-52107142D01*
X44202380Y-52250000D01*
X44202380Y-52488095D01*
X37178571Y-56154761D02*
X37226190Y-56011904D01*
X37273809Y-55964285D01*
X37369047Y-55916666D01*
X37511904Y-55916666D01*
X37607142Y-55964285D01*
X37654761Y-56011904D01*
X37702380Y-56107142D01*
X37702380Y-56488095D01*
X36702380Y-56488095D01*
X36702380Y-56154761D01*
X36750000Y-56059523D01*
X36797619Y-56011904D01*
X36892857Y-55964285D01*
X36988095Y-55964285D01*
X37083333Y-56011904D01*
X37130952Y-56059523D01*
X37178571Y-56154761D01*
X37178571Y-56488095D01*
X36797619Y-55535714D02*
X36750000Y-55488095D01*
X36702380Y-55392857D01*
X36702380Y-55154761D01*
X36750000Y-55059523D01*
X36797619Y-55011904D01*
X36892857Y-54964285D01*
X36988095Y-54964285D01*
X37130952Y-55011904D01*
X37702380Y-55583333D01*
X37702380Y-54964285D01*
X33178571Y-56154761D02*
X33226190Y-56011904D01*
X33273809Y-55964285D01*
X33369047Y-55916666D01*
X33511904Y-55916666D01*
X33607142Y-55964285D01*
X33654761Y-56011904D01*
X33702380Y-56107142D01*
X33702380Y-56488095D01*
X32702380Y-56488095D01*
X32702380Y-56154761D01*
X32750000Y-56059523D01*
X32797619Y-56011904D01*
X32892857Y-55964285D01*
X32988095Y-55964285D01*
X33083333Y-56011904D01*
X33130952Y-56059523D01*
X33178571Y-56154761D01*
X33178571Y-56488095D01*
X33702380Y-54964285D02*
X33702380Y-55535714D01*
X33702380Y-55250000D02*
X32702380Y-55250000D01*
X32845238Y-55345238D01*
X32940476Y-55440476D01*
X32988095Y-55535714D01*
X29166666Y-56464285D02*
X29166666Y-55988095D01*
X29452380Y-56559523D02*
X28452380Y-56226190D01*
X29452380Y-55892857D01*
X29452380Y-55035714D02*
X29452380Y-55607142D01*
X29452380Y-55321428D02*
X28452380Y-55321428D01*
X28595238Y-55416666D01*
X28690476Y-55511904D01*
X28738095Y-55607142D01*
X24916666Y-56464285D02*
X24916666Y-55988095D01*
X25202380Y-56559523D02*
X24202380Y-56226190D01*
X25202380Y-55892857D01*
X24297619Y-55607142D02*
X24250000Y-55559523D01*
X24202380Y-55464285D01*
X24202380Y-55226190D01*
X24250000Y-55130952D01*
X24297619Y-55083333D01*
X24392857Y-55035714D01*
X24488095Y-55035714D01*
X24630952Y-55083333D01*
X25202380Y-55654761D01*
X25202380Y-55035714D01*
%TO.C,R2*%
X30833333Y-13452380D02*
X30500000Y-12976190D01*
X30261904Y-13452380D02*
X30261904Y-12452380D01*
X30642857Y-12452380D01*
X30738095Y-12500000D01*
X30785714Y-12547619D01*
X30833333Y-12642857D01*
X30833333Y-12785714D01*
X30785714Y-12880952D01*
X30738095Y-12928571D01*
X30642857Y-12976190D01*
X30261904Y-12976190D01*
X31214285Y-12547619D02*
X31261904Y-12500000D01*
X31357142Y-12452380D01*
X31595238Y-12452380D01*
X31690476Y-12500000D01*
X31738095Y-12547619D01*
X31785714Y-12642857D01*
X31785714Y-12738095D01*
X31738095Y-12880952D01*
X31166666Y-13452380D01*
X31785714Y-13452380D01*
%TO.C,J3*%
X13762380Y-31333333D02*
X14476666Y-31333333D01*
X14619523Y-31380952D01*
X14714761Y-31476190D01*
X14762380Y-31619047D01*
X14762380Y-31714285D01*
X13762380Y-30952380D02*
X13762380Y-30333333D01*
X14143333Y-30666666D01*
X14143333Y-30523809D01*
X14190952Y-30428571D01*
X14238571Y-30380952D01*
X14333809Y-30333333D01*
X14571904Y-30333333D01*
X14667142Y-30380952D01*
X14714761Y-30428571D01*
X14762380Y-30523809D01*
X14762380Y-30809523D01*
X14714761Y-30904761D01*
X14667142Y-30952380D01*
%TO.C,JP1*%
X34816666Y-25652380D02*
X34816666Y-26366666D01*
X34769047Y-26509523D01*
X34673809Y-26604761D01*
X34530952Y-26652380D01*
X34435714Y-26652380D01*
X35292857Y-26652380D02*
X35292857Y-25652380D01*
X35673809Y-25652380D01*
X35769047Y-25700000D01*
X35816666Y-25747619D01*
X35864285Y-25842857D01*
X35864285Y-25985714D01*
X35816666Y-26080952D01*
X35769047Y-26128571D01*
X35673809Y-26176190D01*
X35292857Y-26176190D01*
X36816666Y-26652380D02*
X36245238Y-26652380D01*
X36530952Y-26652380D02*
X36530952Y-25652380D01*
X36435714Y-25795238D01*
X36340476Y-25890476D01*
X36245238Y-25938095D01*
%TO.C,J7*%
X13762380Y-5333333D02*
X14476666Y-5333333D01*
X14619523Y-5380952D01*
X14714761Y-5476190D01*
X14762380Y-5619047D01*
X14762380Y-5714285D01*
X13762380Y-4952380D02*
X13762380Y-4285714D01*
X14762380Y-4714285D01*
%TO.C,J4*%
X13762380Y-44333333D02*
X14476666Y-44333333D01*
X14619523Y-44380952D01*
X14714761Y-44476190D01*
X14762380Y-44619047D01*
X14762380Y-44714285D01*
X14095714Y-43428571D02*
X14762380Y-43428571D01*
X13714761Y-43666666D02*
X14429047Y-43904761D01*
X14429047Y-43285714D01*
%TO.C,J6*%
X30666666Y-48142380D02*
X30666666Y-48856666D01*
X30619047Y-48999523D01*
X30523809Y-49094761D01*
X30380952Y-49142380D01*
X30285714Y-49142380D01*
X31571428Y-48142380D02*
X31380952Y-48142380D01*
X31285714Y-48190000D01*
X31238095Y-48237619D01*
X31142857Y-48380476D01*
X31095238Y-48570952D01*
X31095238Y-48951904D01*
X31142857Y-49047142D01*
X31190476Y-49094761D01*
X31285714Y-49142380D01*
X31476190Y-49142380D01*
X31571428Y-49094761D01*
X31619047Y-49047142D01*
X31666666Y-48951904D01*
X31666666Y-48713809D01*
X31619047Y-48618571D01*
X31571428Y-48570952D01*
X31476190Y-48523333D01*
X31285714Y-48523333D01*
X31190476Y-48570952D01*
X31142857Y-48618571D01*
X31095238Y-48713809D01*
%TO.C,J5*%
X13762380Y-57333333D02*
X14476666Y-57333333D01*
X14619523Y-57380952D01*
X14714761Y-57476190D01*
X14762380Y-57619047D01*
X14762380Y-57714285D01*
X13762380Y-56380952D02*
X13762380Y-56857142D01*
X14238571Y-56904761D01*
X14190952Y-56857142D01*
X14143333Y-56761904D01*
X14143333Y-56523809D01*
X14190952Y-56428571D01*
X14238571Y-56380952D01*
X14333809Y-56333333D01*
X14571904Y-56333333D01*
X14667142Y-56380952D01*
X14714761Y-56428571D01*
X14762380Y-56523809D01*
X14762380Y-56761904D01*
X14714761Y-56857142D01*
X14667142Y-56904761D01*
%TO.C,C1*%
X35333333Y-45357142D02*
X35285714Y-45404761D01*
X35142857Y-45452380D01*
X35047619Y-45452380D01*
X34904761Y-45404761D01*
X34809523Y-45309523D01*
X34761904Y-45214285D01*
X34714285Y-45023809D01*
X34714285Y-44880952D01*
X34761904Y-44690476D01*
X34809523Y-44595238D01*
X34904761Y-44500000D01*
X35047619Y-44452380D01*
X35142857Y-44452380D01*
X35285714Y-44500000D01*
X35333333Y-44547619D01*
X36285714Y-45452380D02*
X35714285Y-45452380D01*
X36000000Y-45452380D02*
X36000000Y-44452380D01*
X35904761Y-44595238D01*
X35809523Y-44690476D01*
X35714285Y-44738095D01*
%TO.C,Q1*%
X27904761Y-7047619D02*
X27809523Y-7000000D01*
X27714285Y-6904761D01*
X27571428Y-6761904D01*
X27476190Y-6714285D01*
X27380952Y-6714285D01*
X27428571Y-6952380D02*
X27333333Y-6904761D01*
X27238095Y-6809523D01*
X27190476Y-6619047D01*
X27190476Y-6285714D01*
X27238095Y-6095238D01*
X27333333Y-6000000D01*
X27428571Y-5952380D01*
X27619047Y-5952380D01*
X27714285Y-6000000D01*
X27809523Y-6095238D01*
X27857142Y-6285714D01*
X27857142Y-6619047D01*
X27809523Y-6809523D01*
X27714285Y-6904761D01*
X27619047Y-6952380D01*
X27428571Y-6952380D01*
X28809523Y-6952380D02*
X28238095Y-6952380D01*
X28523809Y-6952380D02*
X28523809Y-5952380D01*
X28428571Y-6095238D01*
X28333333Y-6190476D01*
X28238095Y-6238095D01*
%TO.C,J2*%
X13762380Y-18333333D02*
X14476666Y-18333333D01*
X14619523Y-18380952D01*
X14714761Y-18476190D01*
X14762380Y-18619047D01*
X14762380Y-18714285D01*
X13857619Y-17904761D02*
X13810000Y-17857142D01*
X13762380Y-17761904D01*
X13762380Y-17523809D01*
X13810000Y-17428571D01*
X13857619Y-17380952D01*
X13952857Y-17333333D01*
X14048095Y-17333333D01*
X14190952Y-17380952D01*
X14762380Y-17952380D01*
X14762380Y-17333333D01*
%TO.C,R1*%
X30833333Y-15452380D02*
X30500000Y-14976190D01*
X30261904Y-15452380D02*
X30261904Y-14452380D01*
X30642857Y-14452380D01*
X30738095Y-14500000D01*
X30785714Y-14547619D01*
X30833333Y-14642857D01*
X30833333Y-14785714D01*
X30785714Y-14880952D01*
X30738095Y-14928571D01*
X30642857Y-14976190D01*
X30261904Y-14976190D01*
X31785714Y-15452380D02*
X31214285Y-15452380D01*
X31500000Y-15452380D02*
X31500000Y-14452380D01*
X31404761Y-14595238D01*
X31309523Y-14690476D01*
X31214285Y-14738095D01*
%TO.C,J8*%
X45666666Y-45777380D02*
X45666666Y-46491666D01*
X45619047Y-46634523D01*
X45523809Y-46729761D01*
X45380952Y-46777380D01*
X45285714Y-46777380D01*
X46285714Y-46205952D02*
X46190476Y-46158333D01*
X46142857Y-46110714D01*
X46095238Y-46015476D01*
X46095238Y-45967857D01*
X46142857Y-45872619D01*
X46190476Y-45825000D01*
X46285714Y-45777380D01*
X46476190Y-45777380D01*
X46571428Y-45825000D01*
X46619047Y-45872619D01*
X46666666Y-45967857D01*
X46666666Y-46015476D01*
X46619047Y-46110714D01*
X46571428Y-46158333D01*
X46476190Y-46205952D01*
X46285714Y-46205952D01*
X46190476Y-46253571D01*
X46142857Y-46301190D01*
X46095238Y-46396428D01*
X46095238Y-46586904D01*
X46142857Y-46682142D01*
X46190476Y-46729761D01*
X46285714Y-46777380D01*
X46476190Y-46777380D01*
X46571428Y-46729761D01*
X46619047Y-46682142D01*
X46666666Y-46586904D01*
X46666666Y-46396428D01*
X46619047Y-46301190D01*
X46571428Y-46253571D01*
X46476190Y-46205952D01*
%TO.C,A1*%
X32295714Y-17736666D02*
X32771904Y-17736666D01*
X32200476Y-18022380D02*
X32533809Y-17022380D01*
X32867142Y-18022380D01*
X33724285Y-18022380D02*
X33152857Y-18022380D01*
X33438571Y-18022380D02*
X33438571Y-17022380D01*
X33343333Y-17165238D01*
X33248095Y-17260476D01*
X33152857Y-17308095D01*
%TO.C,F1*%
X45666666Y-20428571D02*
X45333333Y-20428571D01*
X45333333Y-20952380D02*
X45333333Y-19952380D01*
X45809523Y-19952380D01*
X46714285Y-20952380D02*
X46142857Y-20952380D01*
X46428571Y-20952380D02*
X46428571Y-19952380D01*
X46333333Y-20095238D01*
X46238095Y-20190476D01*
X46142857Y-20238095D01*
D11*
%TO.C,R2*%
X28254724Y-13522500D02*
X27745276Y-13522500D01*
X28254724Y-12477500D02*
X27745276Y-12477500D01*
%TO.C,J3*%
X11005000Y-34240000D02*
X2950000Y-34240000D01*
X11005000Y-27760000D02*
X2950000Y-27760000D01*
X11005000Y-25840000D02*
X2950000Y-25840000D01*
X11005000Y-36160000D02*
X2950000Y-36160000D01*
X11005000Y-30040000D02*
X2950000Y-30040000D01*
X11005000Y-31960000D02*
X2950000Y-31960000D01*
%TO.C,JP1*%
X36350000Y-29000000D02*
X34950000Y-29000000D01*
X34950000Y-27000000D02*
X36350000Y-27000000D01*
X37050000Y-27700000D02*
X37050000Y-28300000D01*
X34250000Y-28300000D02*
X34250000Y-27700000D01*
X37050000Y-27700000D02*
G75*
G03*
X36350000Y-27000000I-700000J0D01*
G01*
X34250000Y-28300000D02*
G75*
G03*
X34950000Y-29000000I699999J-1D01*
G01*
X34950000Y-27000000D02*
G75*
G03*
X34250000Y-27700000I-1J-699999D01*
G01*
X36350000Y-29000000D02*
G75*
G03*
X37050000Y-28300000I0J700000D01*
G01*
%TO.C,J7*%
X11005000Y-1940000D02*
X2950000Y-1940000D01*
X11005000Y-6140000D02*
X2950000Y-6140000D01*
X11005000Y-3860000D02*
X2950000Y-3860000D01*
X11005000Y-8060000D02*
X2950000Y-8060000D01*
%TO.C,J4*%
X11005000Y-44960000D02*
X2950000Y-44960000D01*
X11005000Y-38840000D02*
X2950000Y-38840000D01*
X11005000Y-43040000D02*
X2950000Y-43040000D01*
X11005000Y-40760000D02*
X2950000Y-40760000D01*
X11005000Y-49160000D02*
X2950000Y-49160000D01*
X11005000Y-47240000D02*
X2950000Y-47240000D01*
%TO.C,J6*%
X29860000Y-51995000D02*
X29860000Y-60050000D01*
X27940000Y-51995000D02*
X27940000Y-60050000D01*
X36340000Y-51995000D02*
X36340000Y-60050000D01*
X32140000Y-51995000D02*
X32140000Y-60050000D01*
X38260000Y-51995000D02*
X38260000Y-60050000D01*
X34060000Y-51995000D02*
X34060000Y-60050000D01*
X23740000Y-51995000D02*
X23740000Y-60050000D01*
X25660000Y-51995000D02*
X25660000Y-60050000D01*
%TO.C,J5*%
X11005000Y-53760000D02*
X2950000Y-53760000D01*
X11005000Y-62160000D02*
X2950000Y-62160000D01*
X11005000Y-60240000D02*
X2950000Y-60240000D01*
X11005000Y-51840000D02*
X2950000Y-51840000D01*
X11005000Y-57960000D02*
X2950000Y-57960000D01*
X11005000Y-56040000D02*
X2950000Y-56040000D01*
%TO.C,C1*%
X32258349Y-41531000D02*
X32258349Y-43960000D01*
X31578349Y-41195000D02*
X31578349Y-43960000D01*
X32818349Y-41945000D02*
X32818349Y-43960000D01*
X30978349Y-41015000D02*
X30978349Y-48985000D01*
X33458349Y-46040000D02*
X33458349Y-47345000D01*
X33138349Y-42259000D02*
X33138349Y-43960000D01*
X31818349Y-46040000D02*
X31818349Y-48704000D01*
X33338349Y-42495000D02*
X33338349Y-43960000D01*
X32858349Y-41981000D02*
X32858349Y-43960000D01*
X33658349Y-42966000D02*
X33658349Y-47034000D01*
X32258349Y-46040000D02*
X32258349Y-48469000D01*
X33538349Y-42772000D02*
X33538349Y-43960000D01*
X32498349Y-46040000D02*
X32498349Y-48309000D01*
X31698349Y-46040000D02*
X31698349Y-48757000D01*
X30737349Y-40970000D02*
X30737349Y-49030000D01*
X31498349Y-41165000D02*
X31498349Y-48835000D01*
X32098349Y-41438000D02*
X32098349Y-43960000D01*
X30657349Y-40958000D02*
X30657349Y-49042000D01*
X33498349Y-42713000D02*
X33498349Y-43960000D01*
X31418349Y-41137000D02*
X31418349Y-48863000D01*
X33618349Y-42898000D02*
X33618349Y-43960000D01*
X33378349Y-42546000D02*
X33378349Y-43960000D01*
X32058349Y-41416000D02*
X32058349Y-43960000D01*
X32898349Y-42017000D02*
X32898349Y-43960000D01*
X31018349Y-41024000D02*
X31018349Y-48976000D01*
X31458349Y-41150000D02*
X31458349Y-48850000D01*
X33738349Y-43110000D02*
X33738349Y-46890000D01*
X31618349Y-46040000D02*
X31618349Y-48790000D01*
X33298349Y-42444000D02*
X33298349Y-43960000D01*
X33258349Y-42396000D02*
X33258349Y-43960000D01*
X31098349Y-41043000D02*
X31098349Y-48957000D01*
X33338349Y-46040000D02*
X33338349Y-47505000D01*
X26087651Y-42285000D02*
X26087651Y-43085000D01*
X32298349Y-46040000D02*
X32298349Y-48444000D01*
X25687651Y-42685000D02*
X26487651Y-42685000D01*
X30777349Y-40976000D02*
X30777349Y-49024000D01*
X30938349Y-41006000D02*
X30938349Y-48994000D01*
X32578349Y-46040000D02*
X32578349Y-48250000D01*
X30617349Y-40952000D02*
X30617349Y-49048000D01*
X33378349Y-46040000D02*
X33378349Y-47454000D01*
X32978349Y-46040000D02*
X32978349Y-47907000D01*
X32338349Y-46040000D02*
X32338349Y-48418000D01*
X33418349Y-42600000D02*
X33418349Y-43960000D01*
X31378349Y-41123000D02*
X31378349Y-48877000D01*
X31778349Y-41278000D02*
X31778349Y-43960000D01*
X31698349Y-41243000D02*
X31698349Y-43960000D01*
X30337349Y-40926000D02*
X30337349Y-49074000D01*
X31938349Y-41353000D02*
X31938349Y-43960000D01*
X32138349Y-46040000D02*
X32138349Y-48540000D01*
X33218349Y-42349000D02*
X33218349Y-43960000D01*
X32978349Y-42093000D02*
X32978349Y-43960000D01*
X33778349Y-43187000D02*
X33778349Y-46813000D01*
X33618349Y-46040000D02*
X33618349Y-47102000D01*
X30377349Y-40929000D02*
X30377349Y-49071000D01*
X33018349Y-46040000D02*
X33018349Y-47867000D01*
X32298349Y-41556000D02*
X32298349Y-43960000D01*
X33218349Y-46040000D02*
X33218349Y-47651000D01*
X33058349Y-46040000D02*
X33058349Y-47826000D01*
X31138349Y-41053000D02*
X31138349Y-48947000D01*
X30217349Y-40921000D02*
X30217349Y-49079000D01*
X31218349Y-41075000D02*
X31218349Y-48925000D01*
X32178349Y-46040000D02*
X32178349Y-48517000D01*
X31898349Y-46040000D02*
X31898349Y-48666000D01*
X33578349Y-42834000D02*
X33578349Y-43960000D01*
X31058349Y-41033000D02*
X31058349Y-48967000D01*
X33938349Y-43547000D02*
X33938349Y-46453000D01*
X33098349Y-42216000D02*
X33098349Y-43960000D01*
X33498349Y-46040000D02*
X33498349Y-47287000D01*
X32418349Y-41635000D02*
X32418349Y-43960000D01*
X32938349Y-46040000D02*
X32938349Y-47945000D01*
X31258349Y-41086000D02*
X31258349Y-48914000D01*
X30417349Y-40932000D02*
X30417349Y-49068000D01*
X32098349Y-46040000D02*
X32098349Y-48562000D01*
X31738349Y-46040000D02*
X31738349Y-48740000D01*
X31658349Y-41226000D02*
X31658349Y-43960000D01*
X32658349Y-41811000D02*
X32658349Y-43960000D01*
X31978349Y-46040000D02*
X31978349Y-48627000D01*
X32698349Y-41844000D02*
X32698349Y-43960000D01*
X32378349Y-46040000D02*
X32378349Y-48392000D01*
X30137349Y-40920000D02*
X30137349Y-49080000D01*
X30697349Y-40963000D02*
X30697349Y-49037000D01*
X31178349Y-41064000D02*
X31178349Y-48936000D01*
X32218349Y-46040000D02*
X32218349Y-48493000D01*
X32338349Y-41582000D02*
X32338349Y-43960000D01*
X32178349Y-41483000D02*
X32178349Y-43960000D01*
X31858349Y-41314000D02*
X31858349Y-43960000D01*
X33698349Y-43036000D02*
X33698349Y-46964000D01*
X33098349Y-46040000D02*
X33098349Y-47784000D01*
X30577349Y-40948000D02*
X30577349Y-49052000D01*
X32778349Y-41910000D02*
X32778349Y-43960000D01*
X31658349Y-46040000D02*
X31658349Y-48774000D01*
X33898349Y-43448000D02*
X33898349Y-46552000D01*
X32538349Y-46040000D02*
X32538349Y-48280000D01*
X32018349Y-41394000D02*
X32018349Y-43960000D01*
X32658349Y-46040000D02*
X32658349Y-48189000D01*
X32738349Y-41876000D02*
X32738349Y-43960000D01*
X32818349Y-46040000D02*
X32818349Y-48055000D01*
X33018349Y-42133000D02*
X33018349Y-43960000D01*
X32618349Y-41780000D02*
X32618349Y-43960000D01*
X30257349Y-40923000D02*
X30257349Y-49077000D01*
X30497349Y-40939000D02*
X30497349Y-49061000D01*
X33058349Y-42174000D02*
X33058349Y-43960000D01*
X30097349Y-40920000D02*
X30097349Y-49080000D01*
X32618349Y-46040000D02*
X32618349Y-48220000D01*
X30457349Y-40935000D02*
X30457349Y-49065000D01*
X33178349Y-42303000D02*
X33178349Y-43960000D01*
X34138349Y-44232000D02*
X34138349Y-45768000D01*
X31618349Y-41210000D02*
X31618349Y-43960000D01*
X30858349Y-40990000D02*
X30858349Y-49010000D01*
X34098349Y-44052000D02*
X34098349Y-45948000D01*
X33258349Y-46040000D02*
X33258349Y-47604000D01*
X32698349Y-46040000D02*
X32698349Y-48156000D01*
X33298349Y-46040000D02*
X33298349Y-47556000D01*
X31858349Y-46040000D02*
X31858349Y-48686000D01*
X32418349Y-46040000D02*
X32418349Y-48365000D01*
X32378349Y-41608000D02*
X32378349Y-43960000D01*
X30537349Y-40943000D02*
X30537349Y-49057000D01*
X32538349Y-41720000D02*
X32538349Y-43960000D01*
X31938349Y-46040000D02*
X31938349Y-48647000D01*
X32498349Y-41691000D02*
X32498349Y-43960000D01*
X31898349Y-41334000D02*
X31898349Y-43960000D01*
X32898349Y-46040000D02*
X32898349Y-47983000D01*
X31738349Y-41260000D02*
X31738349Y-43960000D01*
X30818349Y-40983000D02*
X30818349Y-49017000D01*
X32138349Y-41460000D02*
X32138349Y-43960000D01*
X32018349Y-46040000D02*
X32018349Y-48606000D01*
X31578349Y-46040000D02*
X31578349Y-48805000D01*
X34058349Y-43902000D02*
X34058349Y-46098000D01*
X32458349Y-46040000D02*
X32458349Y-48338000D01*
X31538349Y-41179000D02*
X31538349Y-48821000D01*
X30177349Y-40920000D02*
X30177349Y-49080000D01*
X33818349Y-43269000D02*
X33818349Y-46731000D01*
X32858349Y-46040000D02*
X32858349Y-48019000D01*
X31338349Y-41111000D02*
X31338349Y-48889000D01*
X33138349Y-46040000D02*
X33138349Y-47741000D01*
X31298349Y-41098000D02*
X31298349Y-48902000D01*
X33858349Y-43355000D02*
X33858349Y-46645000D01*
X32778349Y-46040000D02*
X32778349Y-48090000D01*
X33578349Y-46040000D02*
X33578349Y-47166000D01*
X34018349Y-43771000D02*
X34018349Y-46229000D01*
X32218349Y-41507000D02*
X32218349Y-43960000D01*
X31818349Y-41296000D02*
X31818349Y-43960000D01*
X31778349Y-46040000D02*
X31778349Y-48722000D01*
X32578349Y-41750000D02*
X32578349Y-43960000D01*
X31978349Y-41373000D02*
X31978349Y-43960000D01*
X33418349Y-46040000D02*
X33418349Y-47400000D01*
X33978349Y-43654000D02*
X33978349Y-46346000D01*
X33178349Y-46040000D02*
X33178349Y-47697000D01*
X30898349Y-40998000D02*
X30898349Y-49002000D01*
X33458349Y-42655000D02*
X33458349Y-43960000D01*
X32938349Y-42055000D02*
X32938349Y-43960000D01*
X30297349Y-40924000D02*
X30297349Y-49076000D01*
X32458349Y-41662000D02*
X32458349Y-43960000D01*
X32738349Y-46040000D02*
X32738349Y-48124000D01*
X34178349Y-44467000D02*
X34178349Y-45533000D01*
X33538349Y-46040000D02*
X33538349Y-47228000D01*
X32058349Y-46040000D02*
X32058349Y-48584000D01*
X34217349Y-45000000D02*
G75*
G03*
X34217349Y-45000000I-4120000J0D01*
G01*
%TO.C,Q1*%
X28760000Y-7420000D02*
X28760000Y-8350000D01*
X28760000Y-10580000D02*
X27300000Y-10580000D01*
X28760000Y-10580000D02*
X28760000Y-9650000D01*
X28760000Y-7420000D02*
X25600000Y-7420000D01*
%TO.C,J2*%
X11005000Y-23160000D02*
X2950000Y-23160000D01*
X11005000Y-12840000D02*
X2950000Y-12840000D01*
X11005000Y-18960000D02*
X2950000Y-18960000D01*
X11005000Y-21240000D02*
X2950000Y-21240000D01*
X11005000Y-17040000D02*
X2950000Y-17040000D01*
X11005000Y-14760000D02*
X2950000Y-14760000D01*
%TO.C,R1*%
X27745276Y-15522500D02*
X28254724Y-15522500D01*
X27745276Y-14477500D02*
X28254724Y-14477500D01*
%TO.C,J8*%
X47140000Y-49885000D02*
X47140000Y-60015000D01*
X44860000Y-49885000D02*
X44860000Y-60015000D01*
X49460000Y-49885000D02*
X49460000Y-60015000D01*
X42540000Y-49885000D02*
X42540000Y-60015000D01*
%TO.C,A1*%
X27930000Y-18710000D02*
X27930000Y-21380000D01*
X38090000Y-18710000D02*
X38090000Y-39290000D01*
X25260000Y-39290000D02*
X40760000Y-39290000D01*
X25260000Y-21380000D02*
X25260000Y-39290000D01*
X27930000Y-21380000D02*
X25260000Y-21380000D01*
X27930000Y-21380000D02*
X27930000Y-39290000D01*
X25260000Y-18710000D02*
X25260000Y-20110000D01*
X40760000Y-39290000D02*
X40760000Y-18710000D01*
X40760000Y-18710000D02*
X27930000Y-18710000D01*
X26660000Y-18710000D02*
X25260000Y-18710000D01*
%TO.C,F1*%
X48700000Y-45500000D02*
X43300000Y-45500000D01*
X48700000Y-21500000D02*
X48700000Y-45500000D01*
X43300000Y-21500000D02*
X48700000Y-21500000D01*
X43300000Y-45500000D02*
X43300000Y-21500000D01*
%TD*%
M02*
