%TF.GenerationSoftware,KiCad,Pcbnew,(6.0.7)*%
%TF.CreationDate,2022-09-20T18:51:32+02:00*%
%TF.ProjectId,postcardscanner,706f7374-6361-4726-9473-63616e6e6572,rev?*%
%TF.SameCoordinates,PX4d3f640PY2cd29c0*%
%TF.FileFunction,Soldermask,Top*%
%TF.FilePolarity,Negative*%
%FSLAX46Y46*%
G04 Gerber Fmt 4.6, Leading zero omitted, Abs format (unit mm)*
G04 Created by KiCad (PCBNEW (6.0.7)) date 2022-09-20 18:51:32*
%MOMM*%
%LPD*%
G01*
G04 APERTURE LIST*
G04 Aperture macros list*
%AMRoundRect*
0 Rectangle with rounded corners*
0 $1 Rounding radius*
0 $2 $3 $4 $5 $6 $7 $8 $9 X,Y pos of 4 corners*
0 Add a 4 corners polygon primitive as box body*
4,1,4,$2,$3,$4,$5,$6,$7,$8,$9,$2,$3,0*
0 Add four circle primitives for the rounded corners*
1,1,$1+$1,$2,$3*
1,1,$1+$1,$4,$5*
1,1,$1+$1,$6,$7*
1,1,$1+$1,$8,$9*
0 Add four rect primitives between the rounded corners*
20,1,$1+$1,$2,$3,$4,$5,0*
20,1,$1+$1,$4,$5,$6,$7,0*
20,1,$1+$1,$6,$7,$8,$9,0*
20,1,$1+$1,$8,$9,$2,$3,0*%
%AMFreePoly0*
4,1,22,0.500000,-0.750000,0.000000,-0.750000,0.000000,-0.745033,-0.079941,-0.743568,-0.215256,-0.701293,-0.333266,-0.622738,-0.424486,-0.514219,-0.481581,-0.384460,-0.499164,-0.250000,-0.500000,-0.250000,-0.500000,0.250000,-0.499164,0.250000,-0.499963,0.256109,-0.478152,0.396186,-0.417904,0.524511,-0.324060,0.630769,-0.204165,0.706417,-0.067858,0.745374,0.000000,0.744959,0.000000,0.750000,
0.500000,0.750000,0.500000,-0.750000,0.500000,-0.750000,$1*%
%AMFreePoly1*
4,1,20,0.000000,0.744959,0.073905,0.744508,0.209726,0.703889,0.328688,0.626782,0.421226,0.519385,0.479903,0.390333,0.500000,0.250000,0.500000,-0.250000,0.499851,-0.262216,0.476331,-0.402017,0.414519,-0.529596,0.319384,-0.634700,0.198574,-0.708877,0.061801,-0.746166,0.000000,-0.745033,0.000000,-0.750000,-0.500000,-0.750000,-0.500000,0.750000,0.000000,0.750000,0.000000,0.744959,
0.000000,0.744959,$1*%
G04 Aperture macros list end*
%ADD10RoundRect,0.237500X0.250000X0.237500X-0.250000X0.237500X-0.250000X-0.237500X0.250000X-0.237500X0*%
%ADD11R,1.700000X1.700000*%
%ADD12O,1.700000X1.700000*%
%ADD13C,1.850000*%
%ADD14RoundRect,0.250000X-0.675000X0.675000X-0.675000X-0.675000X0.675000X-0.675000X0.675000X0.675000X0*%
%ADD15C,2.200000*%
%ADD16FreePoly0,0.000000*%
%ADD17FreePoly1,0.000000*%
%ADD18RoundRect,0.250000X-0.675000X-0.675000X0.675000X-0.675000X0.675000X0.675000X-0.675000X0.675000X0*%
%ADD19R,1.600000X1.600000*%
%ADD20C,1.600000*%
%ADD21R,1.900000X0.800000*%
%ADD22RoundRect,0.237500X-0.250000X-0.237500X0.250000X-0.237500X0.250000X0.237500X-0.250000X0.237500X0*%
%ADD23C,2.600000*%
%ADD24RoundRect,0.250001X-0.799999X-0.799999X0.799999X-0.799999X0.799999X0.799999X-0.799999X0.799999X0*%
%ADD25C,2.100000*%
%ADD26O,1.600000X1.600000*%
%ADD27C,2.300000*%
G04 APERTURE END LIST*
D10*
%TO.C,R2*%
X28912500Y-13000000D03*
X27087500Y-13000000D03*
%TD*%
D11*
%TO.C,J1*%
X20290000Y-56100000D03*
D12*
X17750000Y-56100000D03*
X20290000Y-53560000D03*
X17750000Y-53560000D03*
X20290000Y-51020000D03*
X17750000Y-51020000D03*
X20290000Y-48480000D03*
X17750000Y-48480000D03*
X20290000Y-45940000D03*
X17750000Y-45940000D03*
X20290000Y-43400000D03*
X17750000Y-43400000D03*
X20290000Y-40860000D03*
X17750000Y-40860000D03*
X20290000Y-38320000D03*
X17750000Y-38320000D03*
X20290000Y-35780000D03*
X17750000Y-35780000D03*
X20290000Y-33240000D03*
X17750000Y-33240000D03*
X20290000Y-30700000D03*
X17750000Y-30700000D03*
X20290000Y-28160000D03*
X17750000Y-28160000D03*
X20290000Y-25620000D03*
X17750000Y-25620000D03*
X20290000Y-23080000D03*
X17750000Y-23080000D03*
X20290000Y-20540000D03*
X17750000Y-20540000D03*
X20290000Y-18000000D03*
X17750000Y-18000000D03*
X20290000Y-15460000D03*
X17750000Y-15460000D03*
X20290000Y-12920000D03*
X17750000Y-12920000D03*
X20290000Y-10380000D03*
X17750000Y-10380000D03*
X20290000Y-7840000D03*
X17750000Y-7840000D03*
%TD*%
D13*
%TO.C,J3*%
X12190000Y-35200000D03*
X12190000Y-31000000D03*
D14*
X12190000Y-26800000D03*
D15*
X1990000Y-31000000D03*
X1990000Y-26800000D03*
X1990000Y-35200000D03*
%TD*%
D16*
%TO.C,JP1*%
X35000000Y-28000000D03*
D17*
X36300000Y-28000000D03*
%TD*%
D15*
%TO.C,J7*%
X1990000Y-2900000D03*
X1990000Y-7100000D03*
D14*
X12190000Y-2900000D03*
D13*
X12190000Y-7100000D03*
%TD*%
D15*
%TO.C,J4*%
X1990000Y-39800000D03*
X1990000Y-44000000D03*
X1990000Y-48200000D03*
D14*
X12190000Y-39800000D03*
D13*
X12190000Y-44000000D03*
X12190000Y-48200000D03*
%TD*%
D15*
%TO.C,J6*%
X37300000Y-61010000D03*
X28900000Y-61010000D03*
X33100000Y-61010000D03*
X24700000Y-61010000D03*
D18*
X24700000Y-50810000D03*
D13*
X28900000Y-50810000D03*
X33100000Y-50810000D03*
X37300000Y-50810000D03*
%TD*%
%TO.C,J5*%
X12190000Y-61200000D03*
X12190000Y-57000000D03*
D14*
X12190000Y-52800000D03*
D15*
X1990000Y-57000000D03*
X1990000Y-61200000D03*
X1990000Y-52800000D03*
%TD*%
D19*
%TO.C,C1*%
X27597349Y-45000000D03*
D20*
X32597349Y-45000000D03*
%TD*%
D21*
%TO.C,Q1*%
X26500000Y-8050000D03*
X26500000Y-9950000D03*
X29500000Y-9000000D03*
%TD*%
D13*
%TO.C,J2*%
X12190000Y-22200000D03*
X12190000Y-18000000D03*
D14*
X12190000Y-13800000D03*
D15*
X1990000Y-18000000D03*
X1990000Y-13800000D03*
X1990000Y-22200000D03*
%TD*%
D22*
%TO.C,R1*%
X27087500Y-15000000D03*
X28912500Y-15000000D03*
%TD*%
D23*
%TO.C,J8*%
X43700000Y-61175000D03*
X48300000Y-61175000D03*
D24*
X43700000Y-48575000D03*
D25*
X48300000Y-48575000D03*
%TD*%
D19*
%TO.C,A1*%
X26660000Y-20110000D03*
D26*
X26660000Y-22650000D03*
X26660000Y-25190000D03*
X26660000Y-27730000D03*
X26660000Y-30270000D03*
X26660000Y-32810000D03*
X26660000Y-35350000D03*
X26660000Y-37890000D03*
X39360000Y-37890000D03*
X39360000Y-35350000D03*
X39360000Y-32810000D03*
X39360000Y-30270000D03*
X39360000Y-27730000D03*
X39360000Y-25190000D03*
X39360000Y-22650000D03*
X39360000Y-20110000D03*
%TD*%
D27*
%TO.C,F1*%
X46000000Y-23250000D03*
X46000000Y-28450000D03*
X46000000Y-43750000D03*
X46000000Y-38550000D03*
%TD*%
M02*
