M48
; DRILL file {KiCad (6.0.7)} date Tue Sep 20 18:50:08 2022
; FORMAT={3:3/ absolute / metric / suppress leading zeros}
; #@! TF.CreationDate,2022-09-20T18:50:08+02:00
; #@! TF.GenerationSoftware,Kicad,Pcbnew,(6.0.7)
; #@! TF.FileFunction,Plated,1,2,PTH
FMAT,2
METRIC,TZ
; #@! TA.AperFunction,Plated,PTH,ViaDrill
T1C0.300
; #@! TA.AperFunction,Plated,PTH,ComponentDrill
T2C0.800
; #@! TA.AperFunction,Plated,PTH,ComponentDrill
T3C0.850
; #@! TA.AperFunction,Plated,PTH,ComponentDrill
T4C1.000
; #@! TA.AperFunction,Plated,PTH,ComponentDrill
T5C1.100
; #@! TA.AperFunction,Plated,PTH,ComponentDrill
T6C1.300
%
G90
G05
T1
X24500Y-8000
X24500Y-10000
X32500Y-28000
T2
X26660Y-20110
X26660Y-22650
X26660Y-25190
X26660Y-27730
X26660Y-30270
X26660Y-32810
X26660Y-35350
X26660Y-37890
X27597Y-45000
X32597Y-45000
X39360Y-20110
X39360Y-22650
X39360Y-25190
X39360Y-27730
X39360Y-30270
X39360Y-32810
X39360Y-35350
X39360Y-37890
T3
X12190Y-2900
X12190Y-7100
X12190Y-13800
X12190Y-18000
X12190Y-22200
X12190Y-26800
X12190Y-31000
X12190Y-35200
X12190Y-39800
X12190Y-44000
X12190Y-48200
X12190Y-52800
X12190Y-57000
X12190Y-61200
X24700Y-50810
X28900Y-50810
X33100Y-50810
X37300Y-50810
T4
X17750Y-7840
X17750Y-10380
X17750Y-12920
X17750Y-15460
X17750Y-18000
X17750Y-20540
X17750Y-23080
X17750Y-25620
X17750Y-28160
X17750Y-30700
X17750Y-33240
X17750Y-35780
X17750Y-38320
X17750Y-40860
X17750Y-43400
X17750Y-45940
X17750Y-48480
X17750Y-51020
X17750Y-53560
X17750Y-56100
X20290Y-7840
X20290Y-10380
X20290Y-12920
X20290Y-15460
X20290Y-18000
X20290Y-20540
X20290Y-23080
X20290Y-25620
X20290Y-28160
X20290Y-30700
X20290Y-33240
X20290Y-35780
X20290Y-38320
X20290Y-40860
X20290Y-43400
X20290Y-45940
X20290Y-48480
X20290Y-51020
X20290Y-53560
X20290Y-56100
T5
X43700Y-48575
X48300Y-48575
T6
X46000Y-23250
X46000Y-28450
X46000Y-38550
X46000Y-43750
T0
M30
