M48
; DRILL file {KiCad (6.0.7)} date Tue Sep 20 18:50:08 2022
; FORMAT={3:3/ absolute / metric / suppress leading zeros}
; #@! TF.CreationDate,2022-09-20T18:50:08+02:00
; #@! TF.GenerationSoftware,Kicad,Pcbnew,(6.0.7)
; #@! TF.FileFunction,NonPlated,1,2,NPTH
FMAT,2
METRIC,TZ
; #@! TA.AperFunction,NonPlated,NPTH,ComponentDrill
T1C2.200
; #@! TA.AperFunction,NonPlated,NPTH,ComponentDrill
T2C2.600
%
G90
G05
T1
X1990Y-2900
X1990Y-7100
X1990Y-13800
X1990Y-18000
X1990Y-22200
X1990Y-26800
X1990Y-31000
X1990Y-35200
X1990Y-39800
X1990Y-44000
X1990Y-48200
X1990Y-52800
X1990Y-57000
X1990Y-61200
X24700Y-61010
X28900Y-61010
X33100Y-61010
X37300Y-61010
T2
X43700Y-61175
X48300Y-61175
T0
M30
